<svg xmlns="http://www.w3.org/2000/svg" fill="none" viewBox="0 0 32 32" height="32" width="32">
  <path fill="currentColor" d="M 20.11 16.34 L 16.46 19.13 C 16.33 19.24 16.16 19.29 16.00 19.29 C 15.83 19.29 15.66 19.24 15.53 19.13 L 11.88 16.34 C 11.82 16.29 11.77 16.24 11.73 16.18 C 11.70 16.11 11.68 16.04 11.68 15.97 C 11.68 15.89 11.70 15.82 11.73 15.76 C 11.77 15.70 11.82 15.64 11.88 15.60 L 15.53 12.71 C 15.67 12.63 15.83 12.59 16.00 12.59 C 16.16 12.59 16.32 12.63 16.46 12.71 L 20.11 15.60 C 20.17 15.64 20.21 15.70 20.25 15.76 C 20.28 15.82 20.30 15.89 20.30 15.97 C 20.30 16.04 20.28 16.11 20.25 16.18 C 20.21 16.24 20.17 16.29 20.11 16.34 ZM 30.68 19.57 L 26.55 16.28 C 26.48 16.24 26.43 16.19 26.40 16.13 C 26.36 16.07 26.34 16.00 26.34 15.93 C 26.34 15.86 26.36 15.79 26.40 15.73 C 26.43 15.67 26.48 15.62 26.55 15.58 L 30.68 12.30 C 30.80 12.22 30.89 12.11 30.94 11.97 C 30.98 11.84 30.97 11.69 30.92 11.56 C 30.83 11.46 30.70 11.38 30.56 11.35 C 30.43 11.32 30.28 11.33 30.15 11.39 L 25.19 13.34 C 25.12 13.38 25.05 13.39 24.98 13.39 C 24.91 13.39 24.84 13.37 24.78 13.33 C 24.71 13.30 24.66 13.25 24.63 13.18 C 24.59 13.12 24.57 13.05 24.57 12.98 L 23.82 7.71 C 23.77 7.40 23.55 7.15 23.31 7.15 C 23.17 7.16 23.03 7.23 22.93 7.33 C 22.83 7.43 22.77 7.57 22.76 7.71 L 22.03 12.98 C 22.02 13.05 22.00 13.12 21.96 13.18 C 21.93 13.25 21.88 13.30 21.81 13.33 C 21.75 13.37 21.68 13.39 21.61 13.39 C 21.54 13.39 21.47 13.38 21.40 13.34 L 16.55 11.48 C 16.19 11.35 15.79 11.35 15.44 11.48 L 10.60 13.34 C 10.53 13.38 10.46 13.39 10.39 13.39 C 10.32 13.39 10.25 13.37 10.18 13.33 C 10.12 13.30 10.07 13.25 10.03 13.18 C 9.99 13.12 9.97 13.05 9.97 12.98 L 9.24 7.71 C 9.22 7.57 9.16 7.43 9.06 7.33 C 8.95 7.22 8.82 7.16 8.67 7.15 C 8.45 7.15 8.21 7.40 8.16 7.71 L 7.41 12.98 C 7.41 13.05 7.39 13.12 7.35 13.19 C 7.31 13.25 7.26 13.30 7.20 13.34 C 7.13 13.38 7.06 13.40 6.99 13.40 C 6.91 13.40 6.84 13.38 6.78 13.34 L 1.85 11.39 C 1.71 11.33 1.57 11.32 1.43 11.35 C 1.29 11.38 1.16 11.46 1.06 11.56 C 1.02 11.70 1.02 11.84 1.06 11.98 C 1.11 12.11 1.20 12.22 1.32 12.30 L 5.45 15.58 C 5.51 15.62 5.56 15.67 5.60 15.73 C 5.63 15.79 5.65 15.86 5.65 15.93 C 5.65 16.00 5.63 16.07 5.60 16.13 C 5.56 16.19 5.51 16.24 5.45 16.28 L 1.32 19.57 C 1.24 19.60 1.17 19.64 1.12 19.70 C 1.06 19.76 1.02 19.83 0.99 19.90 C 0.96 19.98 0.95 20.06 0.96 20.14 C 0.96 20.22 0.99 20.29 1.02 20.37 C 1.06 20.44 1.11 20.50 1.18 20.55 C 1.24 20.60 1.31 20.63 1.39 20.65 C 1.47 20.67 1.55 20.67 1.63 20.66 C 1.71 20.64 1.78 20.61 1.85 20.57 L 6.73 18.59 C 6.80 18.56 6.87 18.55 6.94 18.55 C 7.01 18.55 7.08 18.57 7.14 18.61 C 7.20 18.64 7.26 18.69 7.30 18.75 C 7.33 18.81 7.36 18.88 7.36 18.95 L 8.07 24.29 C 8.09 24.44 8.16 24.58 8.27 24.68 C 8.38 24.78 8.52 24.85 8.67 24.85 C 8.83 24.85 8.97 24.79 9.09 24.69 C 9.21 24.58 9.28 24.44 9.30 24.29 L 10.02 18.95 C 10.03 18.88 10.05 18.81 10.09 18.75 C 10.12 18.69 10.18 18.64 10.24 18.60 C 10.30 18.57 10.37 18.55 10.45 18.54 C 10.52 18.54 10.59 18.56 10.65 18.59 L 15.44 20.53 C 15.80 20.63 16.18 20.63 16.55 20.53 L 21.35 18.59 C 21.41 18.56 21.48 18.54 21.55 18.54 C 21.63 18.55 21.70 18.57 21.76 18.60 C 21.82 18.64 21.88 18.69 21.91 18.75 C 21.95 18.81 21.97 18.88 21.98 18.95 L 22.68 24.29 C 22.70 24.44 22.78 24.58 22.89 24.69 C 23.01 24.79 23.16 24.85 23.31 24.85 C 23.46 24.85 23.61 24.79 23.72 24.68 C 23.83 24.58 23.90 24.44 23.92 24.29 L 24.62 18.95 C 24.63 18.88 24.65 18.82 24.69 18.76 C 24.73 18.70 24.78 18.65 24.84 18.61 C 24.90 18.58 24.97 18.56 25.04 18.55 C 25.11 18.55 25.19 18.56 25.25 18.59 L 30.15 20.57 C 30.22 20.61 30.29 20.64 30.37 20.66 C 30.45 20.67 30.53 20.67 30.61 20.65 C 30.69 20.63 30.76 20.60 30.82 20.55 C 30.89 20.50 30.94 20.44 30.98 20.37 C 31.01 20.29 31.04 20.22 31.04 20.14 C 31.05 20.06 31.04 19.98 31.01 19.90 C 30.98 19.83 30.94 19.76 30.88 19.70 C 30.83 19.64 30.76 19.60 30.68 19.57 Z"/>
</svg>
